<svg id="Layer_1" data-name="Layer 1" xmlns="http://www.w3.org/2000/svg" width="169.872" height="80.707" viewBox="0 0 169.87 80.71"><defs><style>.cls-1{fill:#007062;}.cls-2{fill:#e2c992;}</style></defs><path class="cls-1" d="M155.74,8.7C148.55,6,142.63,2.85,140.7,0h0c-1.93,2.81-7.86,6-15,8.66-8.48,3.16-14.13,7.84-14.13,20.46V51.54c0,12.63,5.65,17.32,14.13,20.46,7.19,2.68,13.12,5.85,15,8.67h0c1.93-2.82,7.85-6,15-8.67,8.48-3.15,14.13-7.83,14.13-20.46V29.16c0-12.62-5.65-17.3-14.13-20.46"/><path class="cls-2" d="M154.53,12.15A58.41,58.41,0,0,1,141,5.39l-.24-.18-.25.19a56.8,56.8,0,0,1-13.6,6.75C119.31,15,115.21,18.47,115.21,29V51.7c0,10.55,4.09,14.07,11.64,16.87a57.36,57.36,0,0,1,13.6,6.75l.25.19.24-.18a58.41,58.41,0,0,1,13.58-6.76c7.55-2.81,11.65-6.32,11.65-16.87V29C166.18,18.47,162.08,14.94,154.53,12.15Zm10.8,39.55c0,10-3.9,13.41-11.09,16.07a59.06,59.06,0,0,0-13.52,6.68,58.8,58.8,0,0,0-13.56-6.68c-7.19-2.66-11.09-6-11.09-16.07V29c0-10,3.9-13.4,11.09-16.07a59.24,59.24,0,0,0,13.56-6.67,58.89,58.89,0,0,0,13.52,6.67c7.19,2.67,11.09,6,11.09,16.07Z"/><path class="cls-2" d="M154.17,57.33a1,1,0,0,0-.42-.07h0a1.07,1.07,0,0,0-.25,0h-.05l-.15.07h0l-.1.07-.05,0,0,0,0,0h0a.8.8,0,0,0-.15.21,1.75,1.75,0,0,1-1,.14,10.15,10.15,0,0,1-3.21-.85c-.39-.16-.79-.34-1.21-.54,0,0-.78.79-1,1a2.14,2.14,0,0,0-.52.89l.37.18a14.14,14.14,0,0,0,5.7,1.66,4.46,4.46,0,0,0,1-.11A2.23,2.23,0,0,0,154.69,59,1.21,1.21,0,0,0,154.17,57.33Z"/><path class="cls-2" d="M133.85,56.52q-.63.3-1.2.54a10.25,10.25,0,0,1-3.22.85,1.7,1.7,0,0,1-1-.14,1.06,1.06,0,0,0-.16-.21h0l0,0,0,0-.05,0a.87.87,0,0,0-.1-.08h0l-.15-.07h-.05a1,1,0,0,0-.25,0h0a1.23,1.23,0,0,0-.42.07c-.91.39-.63,1.42-.53,1.67a2.22,2.22,0,0,0,1.59,1.16,4.53,4.53,0,0,0,1,.11A14.18,14.18,0,0,0,135,58.6l.37-.18a2.16,2.16,0,0,0-.52-.89C134.63,57.3,133.85,56.54,133.85,56.52Z"/><path class="cls-2" d="M158.26,42.54a16.48,16.48,0,0,0-5.42,1.36,34.39,34.39,0,0,0-7.06,4.45c-1.84,1.38-3.51,2.73-5.07,3.89-1.58-1.17-3.25-2.51-5.08-3.89a34.88,34.88,0,0,0-7-4.45,16.59,16.59,0,0,0-5.43-1.36c-.32,0-.63,0-1,0a8.76,8.76,0,0,0-2.56.34l-.73.23,0,0c-.06,0,0,.1,0,.09A21.48,21.48,0,0,1,126,45.13a30,30,0,0,1,5.3,3.08,33.44,33.44,0,0,1,2.9,2.16c1.52,1.25,3,2.4,4.36,3.42l-.41.27c-1.14.74-2.2,1.36-3.2,1.89-1.2-1.3-1-2.15-1-2.15a.82.82,0,0,0-.9-.13c-.72.59,0,1.48.94,2.4l.54.53a10.57,10.57,0,0,1,.95,1.08.61.61,0,0,1,.09.16,2,2,0,0,1,0,2.22c.6.68.95.38.95.38.67-.41.56-1.47,0-2.49a46.46,46.46,0,0,0,4.24-2.63A45.88,45.88,0,0,0,145,58c-.55,1-.66,2.08,0,2.49,0,0,.35.3.95-.38a2,2,0,0,1,0-2.22l.09-.16a9.53,9.53,0,0,1,1-1.08l.53-.53c.93-.92,1.66-1.81.94-2.4a.82.82,0,0,0-.9.13s.2.85-1,2.15c-1-.52-2.06-1.15-3.2-1.89l-.41-.27q2.09-1.53,4.36-3.42a35,35,0,0,1,2.9-2.16,30,30,0,0,1,5.3-3.08,21.69,21.69,0,0,1,7.11-1.94c.06,0,.08-.08,0-.09l-.05,0-.73-.23a8.43,8.43,0,0,0-2.56-.34C158.9,42.51,158.58,42.52,158.26,42.54Z"/><path class="cls-2" d="M130,28.42a.07.07,0,0,0,.11.06,13,13,0,0,1,5.13-3,.06.06,0,0,1,.06.1,9.64,9.64,0,0,0-3.28,7v.3c0,.05.1.08.12,0a12.65,12.65,0,0,1,3.61-4.34.06.06,0,0,1,.1.07,11.54,11.54,0,0,0-.72,3.91,12.06,12.06,0,0,0,.44,3.34.06.06,0,0,0,.12,0,14.77,14.77,0,0,1,2.77-6c0-.05.13,0,.11,0a9.61,9.61,0,0,0-.24,6.25.06.06,0,0,0,.12,0,36.3,36.3,0,0,1,1.77-5.09c-.46,4.35-1.09,10.85-1.09,14.25,0,5.42,1.58,5.73,1.58,5.73h0s1.57-.31,1.57-5.73c0-3.4-.62-9.9-1.09-14.25a36.65,36.65,0,0,1,1.78,5.09.06.06,0,0,0,.12,0,9.7,9.7,0,0,0-.23-6.25c0-.06.07-.1.1,0a14.71,14.71,0,0,1,2.77,6,.06.06,0,0,0,.12,0,12.06,12.06,0,0,0,.44-3.34,11.5,11.5,0,0,0-.72-3.91.06.06,0,0,1,.1-.07,12.76,12.76,0,0,1,3.61,4.34s.12,0,.12,0v-.3a9.63,9.63,0,0,0-3.28-7,.06.06,0,0,1,.06-.1,13,13,0,0,1,5.13,3,.07.07,0,0,0,.11-.06c-.68-2.79-3.26-5-6.54-5.63-.07,0-.06-.1,0-.1h0a9.51,9.51,0,0,1,6.24,2.09.06.06,0,0,0,.1-.07,7,7,0,0,0-6.68-4.07c-.21,0-.42,0-.62,0a.05.05,0,0,1,0-.1,5.9,5.9,0,0,1,3.06-1,.05.05,0,0,0,0-.1,5.19,5.19,0,0,0-2.67-.7,5.06,5.06,0,0,0-2.75.79l-.09,0a6.59,6.59,0,0,0-.61-1.64l-.09-.15a.06.06,0,0,0-.1,0l-.09.15a6.37,6.37,0,0,0-.62,1.64l-.09,0a5.12,5.12,0,0,0-2.75-.79,5.26,5.26,0,0,0-2.67.7.05.05,0,0,0,0,.1,5.87,5.87,0,0,1,3.05,1,.05.05,0,0,1,0,.1c-.21,0-.41,0-.62,0a7,7,0,0,0-6.68,4.07.06.06,0,0,0,.1.07,9.58,9.58,0,0,1,6.25-2.09h0c.07,0,.08.1,0,.1C133.23,23.45,130.66,25.62,130,28.42Z"/><path class="cls-1" d="M20.78,15.05a2.36,2.36,0,0,0,1.64-.61,2.16,2.16,0,0,0,.65-1.59,2.2,2.2,0,0,0-.65-1.62,2.28,2.28,0,0,0-1.64-.62,2.19,2.19,0,0,0-1.57.62,2.27,2.27,0,0,0-.63,1.62,2.19,2.19,0,0,0,.63,1.59,2.16,2.16,0,0,0,1.57.61"/><path class="cls-1" d="M52.34,15.05A2.34,2.34,0,0,0,54,14.44a2.16,2.16,0,0,0,.64-1.59A2.19,2.19,0,0,0,54,11.23a2.26,2.26,0,0,0-1.64-.62,2.17,2.17,0,0,0-1.56.62,2.24,2.24,0,0,0-.64,1.62,2.14,2.14,0,0,0,2.2,2.2"/><path class="cls-1" d="M57.12,15.05a2.36,2.36,0,0,0,1.64-.61,2.16,2.16,0,0,0,.64-1.59,2.23,2.23,0,0,0-.64-1.62,2.3,2.3,0,0,0-1.64-.62,2.15,2.15,0,0,0-1.56.62,2.24,2.24,0,0,0-.64,1.62,2.14,2.14,0,0,0,2.2,2.2"/><path class="cls-1" d="M83.86,18.41c-.59.36-2.59,1.37-8.17,2.57a11,11,0,0,0-5.54,2.87,10.09,10.09,0,0,0-2.86,7.45v9.25a.16.16,0,0,0,.16.16H79.6a4.43,4.43,0,0,1-4.44,4.43H67.77a.12.12,0,0,0-.1.16l1.68,4.12a.34.34,0,0,0,.32.21h5.5a8.91,8.91,0,0,0,8.89-8.9V18.53a.13.13,0,0,0-.2-.12M79.58,36.24h-7.8V31.41a5.66,5.66,0,0,1,1.82-4.49,6.19,6.19,0,0,1,1.24-.8,9,9,0,0,1,2.21-.75l2.53-.53Z"/><path class="cls-1" d="M62.57,18.41C62,18.77,60,19.78,54.4,21a10.92,10.92,0,0,0-5.53,2.87A10.09,10.09,0,0,0,46,31.3v4.93H38.18V10.71a.11.11,0,0,0-.16-.1l-4.23,1.54a.12.12,0,0,0-.08.11V40.57a.13.13,0,0,0,.13.13h28.8a.14.14,0,0,0,.14-.14v-22a.14.14,0,0,0-.21-.12M58.29,36.24h-7.8V31.41a5.69,5.69,0,0,1,1.82-4.49,6.83,6.83,0,0,1,1.24-.8,9.23,9.23,0,0,1,2.2-.75l2.53-.53v11.4Z"/><path class="cls-1" d="M29,18.41c-.59.36-2.59,1.37-8.17,2.57a11,11,0,0,0-5.54,2.87,10.09,10.09,0,0,0-2.86,7.45v4.93H8.48a4.09,4.09,0,0,1-2.16-.91,4.81,4.81,0,0,1-1.66-4V22.94a.11.11,0,0,0-.14-.1L.21,24.06a.1.1,0,0,0-.08.1v7.89a8.41,8.41,0,0,0,2.68,6.6A7.87,7.87,0,0,0,7.4,40.71H29.07a.12.12,0,0,0,.12-.13v-22a.12.12,0,0,0-.19-.12M24.72,36.24H16.93V31.41a5.66,5.66,0,0,1,1.82-4.49,6.19,6.19,0,0,1,1.24-.8,9.08,9.08,0,0,1,2.2-.75l2.53-.53Z"/><path class="cls-1" d="M92.86,11.65l-4.24,1.54a.12.12,0,0,0-.08.11V40.58a.14.14,0,0,0,.14.14h4.2a.14.14,0,0,0,.14-.14V11.76a.11.11,0,0,0-.16-.11"/><path class="cls-1" d="M88.68,11.81,93,10.17a.09.09,0,0,0,.06-.09V8.4a.1.1,0,0,0-.13-.09L88.61,10a.09.09,0,0,0-.06.09v1.67a.1.1,0,0,0,.13.1"/><path class="cls-1" d="M93,4.46V6.17a.22.22,0,0,1-.1.18,6.5,6.5,0,0,1-1.62.81c-1.51.41-1.22,2.17-.21,1.87s-1.74,1.9-1.69,1.88a6,6,0,0,0,.1-.8,2.29,2.29,0,0,1-1-1.68c0-1,.56-2.14,2.47-2.77a3.63,3.63,0,0,0,1.9-1.22c0-.06.11,0,.11,0"/><path class="cls-1" d="M6,64.93h6.36L9.22,56.28ZM14.13,70,13,66.69H5.48L4.29,70H1.36L6.69,56.73a5.13,5.13,0,0,1,2.59-2.67,4.35,4.35,0,0,0,1.05-.81L17.05,70Z"/><path class="cls-1" d="M33.7,70,29.87,57.38,26,70H23.52L19.74,56.55a2,2,0,0,1,2-2.57l3.22,13.49,3.49-12A2,2,0,0,1,30.34,54h.56l3.93,13.5,2.84-11.94a2,2,0,0,1,2-1.55h1.08l-4.5,16Z"/><path class="cls-1" d="M81.88,70V58.13A4.15,4.15,0,0,1,86,54h6.39a2.15,2.15,0,0,1-2.13,1.81H84.59v5.33H91.2v1.81H84.59V70Z"/><path class="cls-1" d="M51.26,55.77a3.43,3.43,0,0,0-3.06,1.29,6,6,0,0,0-.74,3.38v3.25a5.4,5.4,0,0,0,1,3.74,3.71,3.71,0,0,0,2.8.94,3.44,3.44,0,0,0,3-1.28,6,6,0,0,0,.74-3.39v-7a2.28,2.28,0,0,1,.33-1.2,5.85,5.85,0,0,1-1.38.22Zm0,14.38A9.55,9.55,0,0,1,48,69.69a5,5,0,0,1-2.1-1.41A4.26,4.26,0,0,1,45,66.6,10,10,0,0,1,44.75,64V60a9.45,9.45,0,0,1,.34-2.83,4.25,4.25,0,0,1,1.09-1.79,5.51,5.51,0,0,1,2.06-1.2,10,10,0,0,1,3-.39c3.88,0,5.68-.62,6.49-1.13V64a9.91,9.91,0,0,1-.33,2.84,4.34,4.34,0,0,1-1.1,1.78,5.25,5.25,0,0,1-2,1.2,10.2,10.2,0,0,1-3,.38"/><path class="cls-1" d="M66.71,64.93h6.36L69.9,56.28ZM74.81,70l-1.16-3.3H66.16L65,70H62l5.33-13.26A5.13,5.13,0,0,1,70,54.06,4.78,4.78,0,0,0,71,53.25L77.74,70Z"/><rect class="cls-1" x="53.55" y="65.41" width="1.79" height="6.89" transform="translate(-32.75 58.69) rotate(-45.02)"/></svg>